<svg width="10" height="8" viewBox="0 0 10 8" fill="none" xmlns="http://www.w3.org/2000/svg">
<path fill-rule="evenodd" clip-rule="evenodd" d="M6.31915 2.34176C5.4093 3.26765 2.68206 6.04297 3.59191 5.11708C3.62185 5.08661 2.07396 3.18327 1.968 3.07544C1.76069 2.86214 1.44743 2.73322 1.15259 2.73322C0.869271 2.73322 0.532973 2.85979 0.337183 3.07544C0.136786 3.29812 -0.0129358 3.59113 0.000884652 3.90522C0.0147051 4.21698 0.118359 4.50998 0.337183 4.73501C1.10652 5.52025 1.87586 6.30315 2.6429 7.0884C2.74886 7.19623 2.85712 7.30639 2.96307 7.41422C3.40303 7.86193 4.15163 7.86193 4.59159 7.41422C5.16514 6.83056 5.73638 6.24924 6.30993 5.66558C7.21978 4.7397 8.12733 3.81615 9.03717 2.89026C9.24678 2.67696 9.45409 2.466 9.6637 2.25269C9.87331 2.03939 10 1.72529 10 1.42291C10 1.1346 9.87562 0.792368 9.6637 0.593127C9.44488 0.389197 9.15695 0.236836 8.84829 0.2509C8.54424 0.26262 8.25632 0.368101 8.03749 0.593127C7.46394 1.17679 6.8927 1.7581 6.31915 2.34176Z" fill="white"/>
</svg>
